<?xml version="1.0" encoding="UTF-8" standalone="no"?>
<svg
   xmlns:dc="http://purl.org/dc/elements/1.1/"
   xmlns:cc="http://creativecommons.org/ns#"
   xmlns:rdf="http://www.w3.org/1999/02/22-rdf-syntax-ns#"
   xmlns:svg="http://www.w3.org/2000/svg"
   xmlns="http://www.w3.org/2000/svg"
   xmlns:sodipodi="http://sodipodi.sourceforge.net/DTD/sodipodi-0.dtd"
   xmlns:inkscape="http://www.inkscape.org/namespaces/inkscape"
   sodipodi:docname="kariert.svg"
   inkscape:version="1.0 (4035a4fb49, 2020-05-01)"
   id="svg8"
   version="1.1"
   viewBox="0 0 210 297"
   height="297mm"
   width="210mm">
  <defs
     id="defs2" />
  <sodipodi:namedview
     inkscape:window-maximized="1"
     inkscape:window-y="-8"
     inkscape:window-x="378"
     inkscape:window-height="1001"
     inkscape:window-width="1280"
     inkscape:pagecheckerboard="true"
     showgrid="true"
     inkscape:document-rotation="0"
     inkscape:current-layer="layer1"
     inkscape:document-units="mm"
     inkscape:cy="480.69018"
     inkscape:cx="172.20929"
     inkscape:zoom="0.58688525"
     inkscape:pageshadow="2"
     inkscape:pageopacity="0.0"
     borderopacity="1.0"
     bordercolor="#666666"
     pagecolor="#ffffff"
     id="base" />
  <metadata
     id="metadata5">
    <rdf:RDF>
      <cc:Work
         rdf:about="">
        <dc:format>image/svg+xml</dc:format>
        <dc:type
           rdf:resource="http://purl.org/dc/dcmitype/StillImage" />
        <dc:title></dc:title>
      </cc:Work>
    </rdf:RDF>
  </metadata>
  <g
     id="layer1"
     inkscape:groupmode="layer"
     inkscape:label="Layer 1">
    <path
       id="path863"
       style="fill:none;stroke:#666666;stroke-width:0.264583px"
       d="M 0.1322915,0.1322915 V 297.13228 M 6.4822914,0.1322915 V 297.13228 M 12.832291,0.1322915 V 297.13228 m 6.35,-296.9999885 V 297.13228 M 25.53229,0.1322915 V 297.13228 m 6.35,-296.9999885 V 297.13228 m 6.35,-296.9999885 V 297.13228 m 6.35,-296.9999885 V 297.13228 m 6.35,-296.9999885 V 297.13228 m 6.35,-296.9999885 V 297.13228 m 6.35,-296.9999885 V 297.13228 M 69.982289,0.1322915 V 297.13228 m 6.35,-296.9999885 V 297.13228 m 6.35,-296.9999885 V 297.13228 m 6.35,-296.9999885 V 297.13228 m 6.35,-296.9999885 V 297.13228 M 101.73229,0.1322915 V 297.13228 m 6.35,-296.9999885 V 297.13228 m 6.35,-296.9999885 V 297.13228 m 6.35,-296.9999885 V 297.13228 m 6.35,-296.9999885 V 297.13228 m 6.35,-296.9999885 V 297.13228 m 6.35,-296.9999885 V 297.13228 m 6.35,-296.9999885 V 297.13228 m 6.35,-296.9999885 V 297.13228 m 6.35,-296.9999885 V 297.13228 m 6.35,-296.9999885 V 297.13228 m 6.35,-296.9999885 V 297.13228 m 6.35,-296.9999885 V 297.13228 m 6.35,-296.9999885 V 297.13228 m 6.35,-296.9999885 V 297.13228 m 6.35,-296.9999885 V 297.13228 m 6.35,-296.9999885 V 297.13228 m 6.35,-296.9999885 V 297.13228 M 0.1322915,0.1322915 H 210.13229 M 0.1322915,6.4822914 H 210.13229 M 0.1322915,12.832291 H 210.13229 m -209.9999985,6.35 H 210.13229 M 0.1322915,25.53229 H 210.13229 m -209.9999985,6.35 H 210.13229 m -209.9999985,6.35 H 210.13229 m -209.9999985,6.35 H 210.13229 m -209.9999985,6.35 H 210.13229 m -209.9999985,6.35 H 210.13229 m -209.9999985,6.35 H 210.13229 M 0.1322915,69.982289 H 210.13229 m -209.9999985,6.35 H 210.13229 m -209.9999985,6.35 H 210.13229 m -209.9999985,6.35 H 210.13229 m -209.9999985,6.35 H 210.13229 M 0.1322915,101.73229 H 210.13229 m -209.9999985,6.35 H 210.13229 m -209.9999985,6.35 H 210.13229 m -209.9999985,6.35 H 210.13229 m -209.9999985,6.35 H 210.13229 m -209.9999985,6.35 H 210.13229 m -209.9999985,6.35 H 210.13229 m -209.9999985,6.35 H 210.13229 m -209.9999985,6.35 H 210.13229 m -209.9999985,6.35 H 210.13229 m -209.9999985,6.35 H 210.13229 m -209.9999985,6.35 H 210.13229 m -209.9999985,6.35 H 210.13229 m -209.9999985,6.35 H 210.13229 m -209.9999985,6.35 H 210.13229 m -209.9999985,6.35 H 210.13229 m -209.9999985,6.35 H 210.13229 m -209.9999985,6.35 H 210.13229 m -209.9999985,6.35 H 210.13229 M 0.1322915,222.38228 H 210.13229 m -209.9999985,6.35 H 210.13229 m -209.9999985,6.35 H 210.13229 m -209.9999985,6.35 H 210.13229 m -209.9999985,6.35 H 210.13229 m -209.9999985,6.35 H 210.13229 m -209.9999985,6.35 H 210.13229 m -209.9999985,6.35 H 210.13229 m -209.9999985,6.35 H 210.13229 m -209.9999985,6.35 H 210.13229 m -209.9999985,6.35 H 210.13229 m -209.9999985,6.35 H 210.13229" />
  </g>
</svg>
